<svg width="1326" height="362" viewBox="0 0 1326 362" fill="none" xmlns="http://www.w3.org/2000/svg">
<path d="M230.926 44C303.276 44 361.926 105.337 361.926 181C361.926 256.663 303.276 318 230.926 318C206.474 318 183.588 310.992 164 298.794C166.457 298.929 168.933 299 171.426 299C240.738 299 296.926 246.17 296.926 181C296.926 115.83 240.738 63 171.426 63C168.933 63 166.457 63.0703 164 63.2051C183.588 51.0075 206.474 44 230.926 44Z" fill="#94BA03"/>
<path d="M177.5 0C223.27 0 264.993 17.6672 296.472 46.6768C275.945 35.1156 252.457 28.5518 227.5 28.5518C147.143 28.5518 82 96.5772 82 180.49C82 264.403 147.143 332.428 227.5 332.428C253.602 332.428 278.096 325.248 299.276 312.681C267.492 343.256 224.644 362 177.5 362C79.4695 362 0 280.964 0 181C0 81.0365 79.4695 0 177.5 0Z" fill="#078D2A"/>
<path d="M182.973 95.0957C184.807 94.862 186.695 95.1285 188.537 95.1389C192.731 95.1627 196.831 94.8166 200.981 95.7209C206.92 97.0147 212.044 100.419 215.345 105.742C217.209 108.747 218.53 112.279 219.122 115.798C219.856 120.158 219.42 124.841 219.421 129.257C219.422 136.069 220.208 143.461 218.806 150.134C229.427 150.308 240.03 150.061 250.647 150.076C258.423 150.086 263.713 150.866 269.399 156.842C275.909 163.686 276.054 172.28 275.993 181.302C275.935 189.678 275.044 197.355 268.998 203.488C266.012 206.517 262.39 208.661 258.322 209.665C253.842 210.771 247.711 210.208 242.996 210.181L218.787 209.988C218.908 211.408 219.064 212.826 219.15 214.249C219.438 219.055 219.277 223.976 219.304 228.797C219.334 234.293 219.808 244.268 218.619 249.409C217.733 253.235 215.864 256.944 213.334 259.875C209.157 264.714 202.556 267.413 196.383 267.729C191.773 268.143 186.96 268.036 182.346 267.718C175.438 267.243 169.302 264.143 164.755 258.691C162.305 255.753 160.501 252.124 159.666 248.333C158.705 243.964 159.133 239.226 159.082 234.765C158.989 226.554 158.693 218.189 159.302 210.003L151.236 210.098L136.202 210.201C126.61 210.244 116.621 210.806 109.231 203.25C102.971 196.85 103.028 188.34 103.002 179.843C102.976 171.062 103.172 163.713 109.562 157.111C112.344 154.235 115.661 152.297 119.456 151.262C125.475 149.62 132.03 150.225 138.204 150.221L159.331 150.201C158.865 143.552 158.967 136.936 158.967 130.274C158.967 124.964 158.503 119.205 159.682 114.008C160.474 110.519 162.064 107.214 164.255 104.443C168.989 98.4552 175.725 95.8355 182.973 95.0957Z" fill="#F1B204"/>
<path d="M434.13 302V225H448.87L481.65 279.34H473.84L506.07 225H520.7L520.92 302H504.2L504.09 250.63H507.17L481.43 293.86H473.4L447.11 250.63H450.85V302H434.13ZM529.069 302L563.389 225H580.989L615.419 302H596.719L568.559 234.02H575.599L547.329 302H529.069ZM546.229 285.5L550.959 271.97H590.559L595.399 285.5H546.229ZM623.407 302V225H638.147L683.577 280.44H676.427V225H694.027V302H679.397L633.857 246.56H641.007V302H623.407ZM702.125 302L736.445 225H754.045L788.475 302H769.775L741.615 234.02H748.655L720.385 302H702.125ZM719.285 285.5L724.015 271.97H763.615L768.455 285.5H719.285ZM832.57 303.32C826.483 303.32 820.873 302.367 815.74 300.46C810.68 298.48 806.243 295.693 802.43 292.1C798.69 288.507 795.756 284.29 793.63 279.45C791.576 274.61 790.55 269.293 790.55 263.5C790.55 257.707 791.576 252.39 793.63 247.55C795.756 242.71 798.726 238.493 802.54 234.9C806.353 231.307 810.826 228.557 815.96 226.65C821.093 224.67 826.74 223.68 832.9 223.68C839.72 223.68 845.843 224.817 851.27 227.09C856.77 229.363 861.39 232.663 865.13 236.99L853.69 247.55C850.903 244.617 847.86 242.453 844.56 241.06C841.26 239.593 837.666 238.86 833.78 238.86C830.04 238.86 826.63 239.447 823.55 240.62C820.47 241.793 817.793 243.48 815.52 245.68C813.32 247.88 811.596 250.483 810.35 253.49C809.176 256.497 808.59 259.833 808.59 263.5C808.59 267.093 809.176 270.393 810.35 273.4C811.596 276.407 813.32 279.047 815.52 281.32C817.793 283.52 820.433 285.207 823.44 286.38C826.52 287.553 829.893 288.14 833.56 288.14C837.08 288.14 840.49 287.59 843.79 286.49C847.163 285.317 850.426 283.373 853.58 280.66L863.7 293.53C859.52 296.683 854.643 299.103 849.07 300.79C843.57 302.477 838.07 303.32 832.57 303.32ZM847.42 291.22V262.29H863.7V293.53L847.42 291.22ZM896.643 256.02H933.713V269.88H896.643V256.02ZM897.963 287.7H939.873V302H880.253V225H938.443V239.3H897.963V287.7ZM954.052 302V225H968.792L1001.57 279.34H993.762L1025.99 225H1040.62L1040.84 302H1024.12L1024.01 250.63H1027.09L1001.35 293.86H993.322L967.032 250.63H970.772V302H954.052ZM1075.5 256.02H1112.57V269.88H1075.5V256.02ZM1076.82 287.7H1118.73V302H1059.11V225H1117.3V239.3H1076.82V287.7ZM1132.91 302V225H1147.65L1193.08 280.44H1185.93V225H1203.53V302H1188.9L1143.36 246.56H1150.51V302H1132.91ZM1237.7 302V239.52H1213.06V225H1280.16V239.52H1255.52V302H1237.7Z" fill="#F1B204"/>
<path d="M451.06 198.04C441.88 198.04 433.323 196.567 425.39 193.62C417.57 190.56 410.77 186.253 404.99 180.7C399.21 175.147 394.677 168.63 391.39 161.15C388.217 153.67 386.63 145.453 386.63 136.5C386.63 127.547 388.217 119.33 391.39 111.85C394.677 104.37 399.21 97.8533 404.99 92.3C410.883 86.7467 417.74 82.4967 425.56 79.55C433.38 76.49 441.937 74.96 451.23 74.96C461.543 74.96 470.837 76.7733 479.11 80.4C487.497 83.9133 494.523 89.1267 500.19 96.04L482.51 112.36C478.43 107.713 473.897 104.257 468.91 101.99C463.923 99.61 458.483 98.42 452.59 98.42C447.037 98.42 441.937 99.3267 437.29 101.14C432.643 102.953 428.62 105.56 425.22 108.96C421.82 112.36 419.157 116.383 417.23 121.03C415.417 125.677 414.51 130.833 414.51 136.5C414.51 142.167 415.417 147.323 417.23 151.97C419.157 156.617 421.82 160.64 425.22 164.04C428.62 167.44 432.643 170.047 437.29 171.86C441.937 173.673 447.037 174.58 452.59 174.58C458.483 174.58 463.923 173.447 468.91 171.18C473.897 168.8 478.43 165.23 482.51 160.47L500.19 176.79C494.523 183.703 487.497 188.973 479.11 192.6C470.837 196.227 461.487 198.04 451.06 198.04ZM500.99 196L554.03 77H581.23L634.44 196H605.54L562.02 90.94H572.9L529.21 196H500.99ZM527.51 170.5L534.82 149.59H596.02L603.5 170.5H527.51ZM646.786 196V77H698.296C708.949 77 718.129 78.7567 725.836 82.27C733.542 85.67 739.492 90.6 743.686 97.06C747.879 103.52 749.976 111.227 749.976 120.18C749.976 129.02 747.879 136.67 743.686 143.13C739.492 149.477 733.542 154.35 725.836 157.75C718.129 161.15 708.949 162.85 698.296 162.85H662.086L674.326 150.78V196H646.786ZM722.436 196L692.686 152.82H722.096L752.186 196H722.436ZM674.326 153.84L662.086 140.92H696.766C705.266 140.92 711.612 139.107 715.806 135.48C719.999 131.74 722.096 126.64 722.096 120.18C722.096 113.607 719.999 108.507 715.806 104.88C711.612 101.253 705.266 99.44 696.766 99.44H662.086L674.326 86.35V153.84ZM797.126 124.94H854.416V146.36H797.126V124.94ZM799.166 173.9H863.936V196H771.796V77H861.726V99.1H799.166V173.9ZM918.353 196L971.393 77H998.593L1051.8 196H1022.9L979.383 90.94H990.263L946.573 196H918.353ZM944.873 170.5L952.183 149.59H1013.38L1020.86 170.5H944.873ZM1044.24 196L1095.41 125.45V145.51L1046.45 77H1077.73L1111.56 124.77L1098.47 124.94L1131.79 77H1161.71L1113.09 144.32V124.6L1164.6 196H1132.81L1097.79 145.51H1110.37L1075.86 196H1044.24ZM1175.38 196V77H1202.92V196H1175.38ZM1270.26 198.04C1260.74 198.04 1251.62 196.793 1242.89 194.3C1234.16 191.693 1227.14 188.35 1221.81 184.27L1231.16 163.53C1236.26 167.157 1242.27 170.16 1249.18 172.54C1256.21 174.807 1263.29 175.94 1270.43 175.94C1275.87 175.94 1280.23 175.43 1283.52 174.41C1286.92 173.277 1289.41 171.747 1291 169.82C1292.59 167.893 1293.38 165.683 1293.38 163.19C1293.38 160.017 1292.13 157.523 1289.64 155.71C1287.15 153.783 1283.86 152.253 1279.78 151.12C1275.7 149.873 1271.17 148.74 1266.18 147.72C1261.31 146.587 1256.38 145.227 1251.39 143.64C1246.52 142.053 1242.04 140.013 1237.96 137.52C1233.88 135.027 1230.54 131.74 1227.93 127.66C1225.44 123.58 1224.19 118.367 1224.19 112.02C1224.19 105.22 1226 99.0433 1229.63 93.49C1233.37 87.8233 1238.92 83.3467 1246.29 80.06C1253.77 76.66 1263.12 74.96 1274.34 74.96C1281.82 74.96 1289.19 75.8667 1296.44 77.68C1303.69 79.38 1310.1 81.9867 1315.65 85.5L1307.15 106.41C1301.6 103.237 1296.04 100.913 1290.49 99.44C1284.94 97.8533 1279.5 97.06 1274.17 97.06C1268.84 97.06 1264.48 97.6833 1261.08 98.93C1257.68 100.177 1255.24 101.82 1253.77 103.86C1252.3 105.787 1251.56 108.053 1251.56 110.66C1251.56 113.72 1252.81 116.213 1255.3 118.14C1257.79 119.953 1261.08 121.427 1265.16 122.56C1269.24 123.693 1273.72 124.827 1278.59 125.96C1283.58 127.093 1288.51 128.397 1293.38 129.87C1298.37 131.343 1302.9 133.327 1306.98 135.82C1311.06 138.313 1314.35 141.6 1316.84 145.68C1319.45 149.76 1320.75 154.917 1320.75 161.15C1320.75 167.837 1318.88 173.957 1315.14 179.51C1311.4 185.063 1305.79 189.54 1298.31 192.94C1290.94 196.34 1281.59 198.04 1270.26 198.04Z" fill="#078D2A"/>
</svg>
